<?xml version="1.0" standalone="no"?>
<svg xmlns:xlink="http://www.w3.org/1999/xlink" id="wave" style="transform:rotate(180deg); transition: 0.3s" viewBox="0 0 1440 490" version="1.1" xmlns="http://www.w3.org/2000/svg"><defs><linearGradient id="sw-gradient-0" x1="0" x2="0" y1="1" y2="0"><stop stop-color="rgba(155, 169, 180, 1)" offset="0%"/><stop stop-color="rgba(155, 169, 180, 1)" offset="100%"/></linearGradient></defs><path style="transform:translate(0, 0px); opacity:1" fill="url(#sw-gradient-0)" d="M0,196L80,179.7C160,163,320,131,480,147C640,163,800,229,960,245C1120,261,1280,229,1440,245C1600,261,1760,327,1920,367.5C2080,408,2240,425,2400,400.2C2560,376,2720,310,2880,236.8C3040,163,3200,82,3360,81.7C3520,82,3680,163,3840,171.5C4000,180,4160,114,4320,114.3C4480,114,4640,180,4800,171.5C4960,163,5120,82,5280,40.8C5440,0,5600,0,5760,8.2C5920,16,6080,33,6240,32.7C6400,33,6560,16,6720,16.3C6880,16,7040,33,7200,98C7360,163,7520,278,7680,343C7840,408,8000,425,8160,359.3C8320,294,8480,147,8640,81.7C8800,16,8960,33,9120,49C9280,65,9440,82,9600,73.5C9760,65,9920,33,10080,89.8C10240,147,10400,294,10560,367.5C10720,441,10880,441,11040,441C11200,441,11360,441,11440,441L11520,441L11520,490L11440,490C11360,490,11200,490,11040,490C10880,490,10720,490,10560,490C10400,490,10240,490,10080,490C9920,490,9760,490,9600,490C9440,490,9280,490,9120,490C8960,490,8800,490,8640,490C8480,490,8320,490,8160,490C8000,490,7840,490,7680,490C7520,490,7360,490,7200,490C7040,490,6880,490,6720,490C6560,490,6400,490,6240,490C6080,490,5920,490,5760,490C5600,490,5440,490,5280,490C5120,490,4960,490,4800,490C4640,490,4480,490,4320,490C4160,490,4000,490,3840,490C3680,490,3520,490,3360,490C3200,490,3040,490,2880,490C2720,490,2560,490,2400,490C2240,490,2080,490,1920,490C1760,490,1600,490,1440,490C1280,490,1120,490,960,490C800,490,640,490,480,490C320,490,160,490,80,490L0,490Z"/></svg>